# xmcd
# 
# Track frame offsets:
#     150
#     20802
#     37557
#     56197
#     71617
#     91195
#     109022
#     125545
#     144250
#     158815
#     181705
#     194825
# 
# Disc length: 2897
# 
# Revision: 2
# Processed by: cddbd v1.5.2PL0 Copyright (c) Steve Scherf et al.
# Submitted via: fre:ac v1.1beta1pre4
# 
DISCID=9f0b4f0c
DTITLE=Michael Martin Murphey - Playing Favorites
DYEAR=2001
DGENRE=Western
TTITLE0=Carolina in the Pines
TTITLE1=Adobe Walls
TTITLE2=Cherokee Fiddle
TTITLE3=Long Line of Love
TTITLE4=All the Dancing Horses
TTITLE5=Fiddlin' Man
TTITLE6=Cowboy Logic
TTITLE7=I'm Gonna Miss You Girl
TTITLE8=From the Word Go
TTITLE9=Geronimo's Cadillac
TTITLE10=What's Forever For
TTITLE11=Wildfire
EXTD=
EXTT0=Original release 1976
EXTT1=Original release 1994
EXTT2=Original release 1977
EXTT3=Original release 1987
EXTT4=Original release 2000
EXTT5=Original release 1986
EXTT6=Original release 1989
EXTT7=Original release 1988
EXTT8=Original release 1988
EXTT9=Original release 1972
EXTT10=Original release 1982
EXTT11=Original release 1975
PLAYORDER=
